# xmcd
#
# Track frame offsets:
#	150
#	15730
#	27256
#	44865
#	55609
#	67778
#	79927
#	98455
#	110675
#	130048
#	140809
#	154717
#	171608
#	186511
#	203505
#
# Disc length: 2927 seconds
#
# Revision: 0
# Processed by: cddbd v1.5.2PL0 Copyright (c) Steve Scherf et al.
# Submitted via: EasyCDDAExtractor 12.0.0.1
#
DISCID=cf0b6d0f
DTITLE=Chris Evans - 2014 - Sur la route
DYEAR=2014
DGENRE=Country Rock
TTITLE0=Où est la fille
TTITLE1=Contrôles radars
TTITLE2=La robe rouge
TTITLE3=Les demoiselles de Daniel (avec Lucky Blondo)
TTITLE4=La prison de Folsom
TTITLE5=Chris Boogie
TTITLE6=Un garçon sur la route
TTITLE7=Ton coeur tricheur (avec Long Chris)
TTITLE8=Pour l'oublier, il faudra plus de temps
TTITLE9=Du bon rock'n roll
TTITLE10=Oh quelle nuit
TTITLE11=J'ai pas la côte avec toi
TTITLE12=Sur la route
TTITLE13=Camping car
TTITLE14=Je m'en vais
EXTD=
EXTT0=
EXTT1=
EXTT2=
EXTT3=
EXTT4=
EXTT5=
EXTT6=
EXTT7=
EXTT8=
EXTT9=
EXTT10=
EXTT11=
EXTT12=
EXTT13=
EXTT14=
PLAYORDER=
